<svg width="20" height="15" viewBox="0 0 20 15" fill="none" xmlns="http://www.w3.org/2000/svg">
<path d="M9.59277 5.99265L1.19287 0.228634C1.47858 0.0786031 1.80719 0 2.14278 0H17.8569C18.2212 0 18.5711 0.0927909 18.8782 0.257173L10.4069 5.99302C10.1569 6.16425 9.84281 6.16425 9.59265 5.99286L9.59277 5.99265Z" fill="#00A933"/>
<path d="M19.9998 2.14201V12.1419C19.9998 13.3204 19.0355 14.2847 17.8569 14.2847H2.14283C0.964274 14.2847 0 13.3204 0 12.1419V2.14201C0 1.83493 0.0642523 1.53487 0.19292 1.27051L8.77853 7.1635C9.15002 7.42067 9.5786 7.54933 9.99998 7.54933C10.4285 7.54933 10.8499 7.42784 11.2143 7.17067L19.8358 1.33483C19.9429 1.58482 20 1.85633 20 2.14204L19.9998 2.14201Z" fill="#00A933"/>
</svg>
