<svg width="30" height="30" viewBox="0 0 30 30" fill="none" xmlns="http://www.w3.org/2000/svg">
<path d="M28.6452 15.001C28.6452 15.3794 28.6317 15.7578 28.6013 16.1361C28.5878 16.3219 28.5675 16.5077 28.5472 16.6935C28.5405 16.7408 28.5371 16.7848 28.5303 16.8321C28.5101 16.9942 28.554 16.6733 28.5303 16.8354C28.5168 16.9266 28.5033 17.0179 28.4898 17.1091C28.3749 17.832 28.2026 18.5448 27.9763 19.2408C27.8648 19.5854 27.7398 19.9232 27.6047 20.2577C27.5844 20.3049 27.5608 20.4333 27.6047 20.261C27.5945 20.3016 27.5675 20.3455 27.5506 20.386C27.5135 20.4671 27.4797 20.5516 27.4391 20.6326C27.3648 20.7948 27.2871 20.957 27.206 21.1157C26.8851 21.7508 26.5135 22.3623 26.1013 22.9434C26.0034 23.0819 25.9088 23.2542 25.7838 23.3724C25.9088 23.2508 25.8108 23.3387 25.7804 23.3758C25.7635 23.3995 25.7432 23.4231 25.7263 23.4468C25.6622 23.5278 25.598 23.6089 25.5304 23.6866C25.3041 23.9603 25.0676 24.2238 24.821 24.4771C24.5744 24.7305 24.321 24.9771 24.0541 25.2136C23.9224 25.3319 23.7872 25.4467 23.6521 25.5616C23.5947 25.6089 23.5372 25.6562 23.4798 25.7001C23.446 25.7271 23.4122 25.7541 23.3751 25.7812C23.3514 25.7981 23.3278 25.8183 23.3041 25.8352C23.3818 25.7744 23.392 25.7676 23.3345 25.8116C22.767 26.2406 22.1724 26.6325 21.5474 26.9737C21.2332 27.146 20.9156 27.3081 20.588 27.4534C20.5069 27.4905 20.4258 27.5277 20.3414 27.5615C20.2941 27.5818 20.1927 27.6561 20.338 27.5649C20.3144 27.5784 20.2772 27.5885 20.2535 27.5987C20.0745 27.673 19.8921 27.7439 19.7063 27.8115C19.0204 28.0615 18.3178 28.2574 17.6016 28.3993C17.4361 28.4331 17.2705 28.4635 17.1016 28.4871C17.0104 28.5007 16.9192 28.5142 16.828 28.5277C16.6658 28.5513 16.9867 28.5074 16.8246 28.5277C16.7638 28.5344 16.703 28.5446 16.6388 28.5513C16.2638 28.5952 15.8888 28.6223 15.5138 28.6358C14.7571 28.6628 14.0003 28.6324 13.2503 28.5412C13.2132 28.5378 13.1726 28.5311 13.1355 28.5277C13.0341 28.5142 13.3111 28.5513 13.1524 28.5311C13.0611 28.5175 12.9699 28.504 12.8787 28.4905C12.6828 28.4601 12.4835 28.423 12.2875 28.3824C11.9294 28.3081 11.5747 28.2236 11.2233 28.1223C10.8754 28.0209 10.5308 27.9095 10.1896 27.7845C10.0342 27.727 9.88218 27.6662 9.72678 27.6054C9.67948 27.5851 9.5511 27.5615 9.7234 27.6054C9.68286 27.5953 9.63894 27.5683 9.5984 27.5514C9.51057 27.5108 9.41936 27.4737 9.33152 27.4331C8.68962 27.1358 8.07145 26.7946 7.4802 26.4061C7.33156 26.3082 7.18629 26.2102 7.04102 26.1054C6.90251 26.0075 6.73022 25.9129 6.61198 25.7879C6.7336 25.9129 6.64577 25.8149 6.6086 25.7845C6.57482 25.7575 6.53766 25.7305 6.50388 25.7034C6.43631 25.6494 6.36537 25.592 6.2978 25.5345C6.16267 25.4197 6.02754 25.3048 5.89579 25.1866C5.36878 24.7136 4.87552 24.2001 4.42624 23.6562C4.36881 23.5887 4.31475 23.5177 4.25732 23.4501C4.23029 23.4164 4.20327 23.3792 4.17624 23.3454C4.07827 23.2238 4.26746 23.467 4.17286 23.342C4.06476 23.2002 3.96003 23.0583 3.85869 22.913C3.65261 22.6225 3.46005 22.3252 3.27762 22.0211C3.0952 21.7137 2.9229 21.4029 2.76074 21.0819C2.67966 20.9232 2.60197 20.761 2.52764 20.5988C2.49724 20.5313 2.46683 20.4637 2.43643 20.3928C2.41954 20.3556 2.39251 20.3117 2.38238 20.2678C2.42629 20.4536 2.38238 20.2678 2.36548 20.2205C2.09184 19.5482 1.86887 18.8556 1.70332 18.1496C1.61887 17.7915 1.54793 17.4301 1.49049 17.0652C1.47698 16.9773 1.44658 16.8794 1.44995 16.7915C1.4432 16.974 1.45671 16.8388 1.44995 16.7882C1.44658 16.751 1.43982 16.7105 1.43644 16.6733C1.41279 16.4807 1.3959 16.2848 1.38239 16.0922C1.32496 15.3355 1.32834 14.5788 1.38914 13.822C1.40266 13.6497 1.41955 13.4808 1.43982 13.3085C1.44658 13.2612 1.44995 13.2173 1.45671 13.17C1.47698 13.0079 1.43306 13.3288 1.45671 13.1666C1.4736 13.0585 1.48712 12.9538 1.50401 12.8457C1.56482 12.4842 1.63576 12.1227 1.7236 11.7646C1.89589 11.0586 2.12561 10.3728 2.39928 9.70051C2.46009 9.55524 2.33848 9.8424 2.40266 9.69713C2.41618 9.66335 2.43307 9.62956 2.44658 9.59579C2.48036 9.52147 2.51415 9.44714 2.54793 9.36944C2.62901 9.19376 2.71346 9.0181 2.8013 8.8458C2.96346 8.52824 3.13575 8.21743 3.32156 7.91004C3.50736 7.606 3.70331 7.30871 3.90938 7.02154C4.0006 6.89317 4.08843 6.73776 4.19991 6.62966C4.07492 6.75128 4.17289 6.66344 4.20329 6.62628C4.23032 6.5925 4.25734 6.55534 4.28437 6.52155C4.34856 6.44047 4.41612 6.35939 4.48031 6.28169C4.93638 5.73779 5.4296 5.23104 5.95999 4.76149C6.08161 4.65338 6.20323 4.54866 6.32822 4.44393C6.39579 4.3865 6.46673 4.33245 6.5343 4.27501C6.56808 4.24799 6.60524 4.22096 6.63902 4.19394C6.74713 4.10948 6.52078 4.28177 6.65929 4.17704C6.93631 3.96759 7.22009 3.76489 7.51061 3.57571C8.10856 3.1872 8.73695 2.84263 9.38558 2.54531C9.46666 2.50815 9.54774 2.47099 9.6322 2.4372C9.67612 2.41693 9.7876 2.34262 9.63558 2.43383C9.67274 2.41018 9.72003 2.40004 9.76057 2.38315C9.92611 2.31558 10.095 2.2514 10.2639 2.18721C10.6051 2.06222 10.9498 1.95411 11.3011 1.85614C11.6524 1.75817 12.0105 1.67371 12.3686 1.60276C12.551 1.5656 12.7301 1.53519 12.9125 1.50479C12.997 1.49128 13.1017 1.46088 13.1861 1.46425C13.1726 1.46425 13.0206 1.48452 13.1456 1.47101C13.2064 1.46425 13.2672 1.45412 13.3314 1.44736C14.0814 1.36291 14.8415 1.33588 15.5949 1.36628C15.9699 1.38318 16.3449 1.41358 16.7165 1.4575C16.7604 1.46426 16.8144 1.46088 16.855 1.47439C16.6827 1.42034 16.8077 1.46763 16.8583 1.47439C16.9496 1.4879 17.0408 1.50142 17.132 1.51831C17.3144 1.54871 17.4968 1.5825 17.6759 1.61966C18.3887 1.76493 19.0914 1.96424 19.7738 2.21761C19.936 2.27842 20.0947 2.34261 20.2569 2.4068C20.3042 2.42707 20.3954 2.4372 20.24 2.40004C20.2806 2.41018 20.3245 2.4372 20.365 2.45409C20.4596 2.49463 20.5576 2.53855 20.6522 2.58247C20.9765 2.73449 21.2941 2.89665 21.6082 3.06894C21.919 3.24124 22.2231 3.42704 22.5204 3.62298C22.6555 3.7142 22.7907 3.80541 22.9224 3.9C22.9934 3.95068 23.0677 4.00473 23.1386 4.0554C23.1758 4.08243 23.2096 4.10946 23.2467 4.13648C23.2873 4.16689 23.4494 4.25473 23.2873 4.16689C23.4224 4.24121 23.5474 4.37296 23.6656 4.47094C23.8143 4.59256 23.9596 4.72093 24.1014 4.8493C24.3649 5.08578 24.6183 5.3324 24.8616 5.58918C25.1048 5.84595 25.3413 6.10943 25.5677 6.3831C25.6183 6.44729 25.669 6.5081 25.7197 6.57229C25.7433 6.60269 25.767 6.62972 25.7872 6.66012C25.8852 6.78174 25.696 6.5385 25.7906 6.6635C25.9055 6.81552 26.0204 6.97093 26.1318 7.12971C26.5406 7.71415 26.9054 8.3256 27.223 8.9641C27.2973 9.10937 27.3683 9.25801 27.4358 9.41003C27.473 9.49111 27.5102 9.57219 27.544 9.65665C27.5642 9.70057 27.6385 9.81205 27.5473 9.66003C27.5777 9.70732 27.5946 9.77489 27.6149 9.82557C27.75 10.16 27.8716 10.5013 27.9831 10.8458C28.2027 11.5384 28.3683 12.2445 28.4797 12.9606C28.4933 13.0417 28.5203 13.1329 28.5169 13.214C28.5237 13.0316 28.5101 13.1667 28.5169 13.2174C28.5237 13.2647 28.527 13.3086 28.5338 13.3559C28.5541 13.5349 28.571 13.714 28.5845 13.893C28.6318 14.2613 28.6453 14.6329 28.6453 15.0011C28.6453 15.3559 28.9561 15.6937 29.321 15.6768C29.6859 15.66 29.9967 15.3795 29.9967 15.0011C29.9933 11.9167 29.0372 8.84927 27.24 6.33604C25.463 3.84962 22.9833 1.95104 20.1149 0.896987C17.1758 -0.180667 13.8788 -0.285437 10.8722 0.572672C7.99057 1.39699 5.36225 3.10641 3.45682 5.42388C1.48053 7.82245 0.287979 10.7616 0.0447734 13.8629C-0.198463 16.9574 0.554894 20.1194 2.16969 22.7714C3.72035 25.322 6.04122 27.4098 8.76411 28.6394C11.6728 29.9536 14.9295 30.3218 18.0612 29.6833C21.0104 29.082 23.7603 27.5415 25.8379 25.3658C27.9223 23.1801 29.348 20.3659 29.8074 17.3759C29.9291 16.5888 29.9966 15.7949 30 14.9976C30 14.6429 29.6892 14.3051 29.3243 14.3219C28.9561 14.3422 28.6453 14.6226 28.6453 15.0009L28.6452 15.001Z" fill="#00A933"/>
<path d="M9.36868 15.6771H13.1692H19.2299H20.6251C20.9798 15.6771 21.3176 15.3663 21.3008 15.0014C21.2839 14.6365 21.0035 14.3257 20.6251 14.3257H16.8245H10.7639H9.36868C9.01396 14.3257 8.67612 14.6365 8.69299 15.0014C8.70988 15.3696 8.99028 15.6771 9.36868 15.6771Z" fill="#00A933"/>
<path d="M15.588 10.9642C16.1015 11.471 16.615 11.9811 17.1285 12.4878C17.946 13.2986 18.7669 14.1094 19.5845 14.9202C19.7737 15.106 19.9629 15.2952 20.1521 15.481C20.4021 15.731 20.8615 15.7513 21.1082 15.481C21.3548 15.2107 21.3751 14.7919 21.1082 14.5249C20.5947 14.0182 20.0812 13.5081 19.5676 13.0013C18.7501 12.1905 17.9292 11.3797 17.1116 10.569C16.9224 10.3831 16.7332 10.194 16.5441 10.0082C16.2941 9.75816 15.8346 9.7379 15.588 10.0082C15.3414 10.2784 15.3177 10.6973 15.588 10.9642Z" fill="#00A933"/>
<path d="M16.5406 19.9973C17.0541 19.4906 17.5676 18.9804 18.0811 18.4737C18.8986 17.6629 19.7196 16.8521 20.5371 16.0413C20.7263 15.8555 20.9155 15.6663 21.1047 15.4805C21.3547 15.2305 21.3716 14.7711 21.1047 14.5244C20.8344 14.2745 20.4189 14.2576 20.1486 14.5244C19.6351 15.0312 19.1216 15.5413 18.6081 16.0481C17.7906 16.8588 16.9696 17.6696 16.1521 18.4804C15.9629 18.6662 15.7737 18.8554 15.5845 19.0412C15.3345 19.2912 15.3176 19.7506 15.5845 19.9973C15.8581 20.2439 16.2737 20.2642 16.5406 19.9973Z" fill="#00A933"/>
</svg>
